<?xml version="1.0" encoding="utf-8"?>
<!-- Generator: Adobe Illustrator 28.1.0, SVG Export Plug-In . SVG Version: 6.00 Build 0)  -->
<svg version="1.1" id="_1-Arrow_Up" xmlns="http://www.w3.org/2000/svg" xmlns:xlink="http://www.w3.org/1999/xlink" x="0px"
	 y="0px" viewBox="0 0 32 32" style="enable-background:new 0 0 32 32;" xml:space="preserve">
<style type="text/css">
	.st0{fill:#FF7F50;}
</style>
<path class="st0" d="M6,22.8l8.6,8.6c0.8,0.8,2,0.8,2.8,0l8.6-8.6c0.4-0.4,0.4-1,0-1.4l0,0c-0.4-0.4-1.4-0.8-1.7-0.4l-5.9,5.9
	c-0.6,0.6-1,0.8-1-0.1l0-25.2c0-0.5-0.8-1.2-1.4-1.2l0,0c-0.5,0-1.4,0.6-1.4,1.1l0,25.2c0,0.9-0.3,0.8-0.9,0.2l-5.9-5.9
	c-0.4-0.4-1.5,0-1.8,0.4l0,0C5.6,21.8,5.6,22.5,6,22.8z"/>
</svg>
