<?xml version="1.0" encoding="utf-8"?>
<!-- Generator: Adobe Illustrator 28.1.0, SVG Export Plug-In . SVG Version: 6.00 Build 0)  -->
<svg version="1.1" id="_1-Arrow_Up" xmlns="http://www.w3.org/2000/svg" xmlns:xlink="http://www.w3.org/1999/xlink" x="0px"
	 y="0px" viewBox="0 0 32 32" style="enable-background:new 0 0 32 32;" xml:space="preserve">
<style type="text/css">
	.st0{fill:#FF7F50;}
</style>
<path class="st0" d="M26,9.6L17.4,1c-0.8-0.8-2-0.8-2.8,0L6,9.6c-0.4,0.4-0.4,1,0,1.4l0,0c0.4,0.4,1.4,0.8,1.7,0.4l5.9-5.9
	c0.6-0.6,1-0.8,1,0.1v25.2c0,0.5,0.8,1.2,1.4,1.2h0c0.5,0,1.4-0.6,1.4-1.1V5.7c0-0.9,0.3-0.8,0.9-0.2l5.9,5.9c0.4,0.4,1.5,0,1.8-0.4
	l0,0C26.4,10.6,26.4,10,26,9.6z"/>
</svg>
